#!OML:ASF X:\für Bonn\!DataBase\2005_08_10_Bjorn_Final\c3d\bjorn.ASF
:FULLY-SPECIFIED
:DEGREES
32
root 0.519931 19.2543 3.96835 -178.654 3.44911 -178.242
lowerback -0.879071 1.57875 5.70376
upperback 12.9907 3.41252 0.844844
thorax 15.062 2.96109 -1.55949
lowerneck -7.45099 -3.27628 1.42533
upperneck 10.3364 -4.54134 -1.82084
head 4.70352 -2.33346 -1.16929
rclavicle -1.70955e-014 -9.93923e-015
rhumerus -1378 -1.82385 1376.34
rradius 15.6276
rwrist 29.7601
rhand -20.2401 15.6508
rfingers 7.12502
rthumb 6.10798 -14.2411
lclavicle -1.70955e-014 -9.93923e-015
lhumerus 73.2588 -8.67267 57.4304
lradius 18.5115
lwrist -39.0847
lhand -25.4872 -0.00371696
lfingers 7.12502
lthumb 1.04099 29.9735
rfemur -16.0361 -7.97929 16.0475
rtibia 28.3377
rfoot -11.1194 11.8183
rtoes -16.1253
lfemur -13.9261 4.0196 -14.0568
ltibia 29.8841
lfoot -11.8094 -6.05877
ltoes -7.12168
33
root 0.520014 19.247 3.88924 -178.94 3.45297 -178.216
lowerback -1.39326 1.68602 5.72133
upperback 12.5986 3.39757 0.801596
thorax 14.9114 2.89543 -1.62541
lowerneck -7.04532 -3.31376 1.63276
upperneck 11.835 -4.6745 -1.87064
head 4.61923 -2.42392 -1.12737
rclavicle 9.74045e-015 -2.26615e-014
rhumerus -1377.39 -1.52691 1379.9
rradius 16.5613
rwrist 28.0319
rhand -19.6591 15.3459
rfingers 7.12502
rthumb 6.6689 -14.5291
lclavicle 9.74045e-015 -2.26615e-014
lhumerus 74.115 -7.69555 55.109
lradius 18.9916
lwrist -38.9776
lhand -25.3921 -0.490238
lfingers 7.12502
lthumb 1.13282 29.4865
rfemur -15.4607 -7.85638 15.9745
rtibia 28.3793
rfoot -11.3325 11.7895
rtoes -16.3009
lfemur -13.3353 4.0192 -14.0099
ltibia 29.8831
lfoot -12.0704 -6.07281
ltoes -7.54898
34
root 0.519993 19.2413 3.80687 -179.203 3.46719 -178.191
lowerback -1.95497 1.80115 5.71391
upperback 12.1981 3.39283 0.76963
thorax 14.781 2.83062 -1.66055
lowerneck -6.63577 -3.37768 1.8382
upperneck 12.9648 -4.87132 -1.87138
head 4.88969 -2.53916 -1.18484
rclavicle 4.33351e-014 9.14409e-015
rhumerus -1376.9 -1.39756 1383.32
rradius 17.5107
rwrist 26.3689
rhand -19.2719 15.0475
rfingers 7.12502
rthumb 7.04269 -14.8153
lclavicle 4.33351e-014 9.14409e-015
lhumerus 74.8506 -6.66635 52.8227
lradius 19.4636
lwrist -38.7118
lhand -25.406 -0.944116
lfingers 7.12502
lthumb 1.11944 29.0327
rfemur -14.8908 -7.71194 15.9074
rtibia 28.4101
rfoot -11.5766 11.7587
rtoes -16.5956
lfemur -12.7505 3.98294 -13.9641
ltibia 29.8685
lfoot -12.3135 -6.04331
ltoes -7.70907
35
root 0.521243 19.2338 3.72192 -179.478 3.49416 -178.185
lowerback -2.53871 1.90035 5.6761
upperback 11.8318 3.38088 0.734154
thorax 14.7058 2.76532 -1.67896
lowerneck -6.16581 -3.43465 1.92993
upperneck 14.0083 -5.07402 -1.76168
head 5.12996 -2.65865 -1.1888
rclavicle -4.81059e-014 -2.94201e-014
rhumerus -1376.5 -1.36149 1386.91
rradius 18.5307
rwrist 24.8589
rhand -19.1552 14.6223
rfingers 7.12502
rthumb 7.15537 -15.2367
lclavicle -4.81059e-014 -2.94201e-014
lhumerus 75.4903 -5.54669 50.2058
lradius 19.9645
lwrist -37.9124
lhand -25.4531 -0.53344
lfingers 7.12502
lthumb 1.07396 29.4436
rfemur -14.2954 -7.55841 15.8219
rtibia 28.4323
rfoot -11.8809 11.7199
rtoes -17.0122
lfemur -12.127 3.97809 -13.9395
ltibia 29.8372
lfoot -12.5855 -5.99929
ltoes -8.26767
36
root 0.521294 19.2285 3.63838 -179.697 3.49769 -178.184
lowerback -3.14934 1.98721 5.63973
upperback 11.4469 3.35173 0.688005
thorax 14.6258 2.69203 -1.71228
lowerneck -5.5334 -3.49248 2.05381
upperneck 14.9304 -5.29125 -1.67783
head 5.30419 -2.78985 -1.20152
rclavicle 6.7388e-014 2.82274e-014
rhumerus -1376.17 -1.62768 1390.01
rradius 19.4618
rwrist 24.2577
rhand -19.0704 14.2304
rfingers 7.12502
rthumb 7.23724 -15.6258
lclavicle 6.7388e-014 2.82274e-014
lhumerus 75.9723 -4.29772 47.8016
lradius 20.3586
lwrist -37.0197
lhand -25.3638 0.01532
lfingers 7.12502
lthumb 1.16025 29.9919
rfemur -13.7633 -7.48419 15.7371
rtibia 28.4422
rfoot -12.1104 11.7462
rtoes -17.1685
lfemur -11.5822 3.94793 -13.9181
ltibia 29.8052
lfoot -12.8081 -6.00542
ltoes -8.37759
37
root 0.521857 19.2221 3.55395 -179.89 3.527 -178.16
lowerback -3.77586 2.09208 5.62878
upperback 11.0452 3.34656 0.63595
thorax 14.5417 2.6333 -1.76192
lowerneck -4.77823 -3.55956 2.26406
upperneck 15.8003 -5.53486 -1.67333
head 5.4367 -2.94034 -1.2508
rclavicle 5.48646e-014 4.77083e-015
rhumerus -1375.92 -2.25333 1392.48
rradius 20.262
rwrist 24.409
rhand -19.1201 14.2804
rfingers 7.12502
rthumb 7.18924 -15.5775
lclavicle 5.48646e-014 4.77083e-015
lhumerus 76.3678 -3.03251 45.3055
lradius 20.7092
lwrist -35.8095
lhand -25.4362 0.404748
lfingers 7.12502
lthumb 1.09025 30.3817
rfemur -13.2582 -7.37571 15.6805
rtibia 28.455
rfoot -12.364 11.7682
rtoes -17.4949
lfemur -11.055 3.96988 -13.878
ltibia 29.7718
lfoot -13.0533 -6.01256
ltoes -8.49635
38
root 0.522237 19.2153 3.47177 -180.051 3.53081 -178.16
lowerback -4.38397 2.16572 5.56845
upperback 10.6262 3.30784 0.590041
thorax 14.4184 2.55285 -1.78508
lowerneck -3.8851 -3.60659 2.44945
upperneck 16.5462 -5.75252 -1.68242
head 5.50808 -3.08498 -1.29265
rclavicle -2.20651e-014 7.95139e-015
rhumerus -1375.71 -3.02548 1394.52
rradius 21.0287
rwrist 24.9467
rhand -19.4329 14.5092
rfingers 7.12502
rthumb 6.88723 -15.3588
lclavicle -2.20651e-014 7.95139e-015
lhumerus 76.6025 -1.67585 43.0833
lradius 21.0299
lwrist -34.8019
lhand -25.9029 0.92482
lfingers 7.12502
lthumb 0.639551 30.9036
rfemur -12.7997 -7.30505 15.6038
rtibia 28.4716
rfoot -12.6127 11.802
rtoes -17.8234
lfemur -10.5791 3.92051 -13.8717
ltibia 29.749
lfoot -13.2933 -5.9579
ltoes -8.83606
39
root 0.524043 19.2095 3.39122 -180.179 3.53279 -178.16
lowerback -4.98772 2.25246 5.5075
upperback 10.182 3.29226 0.52739
thorax 14.2668 2.4842 -1.82359
lowerneck -2.92536 -3.66185 2.74089
upperneck 17.2856 -5.99399 -1.7695
head 5.56036 -3.24639 -1.37511
rclavicle -6.42074e-014 8.74653e-015
rhumerus -1375.66 -3.82748 1396.71
rradius 21.8097
rwrist 25.1206
rhand -19.8256 14.7276
rfingers 7.12502
rthumb 6.5082 -15.1524
lclavicle -6.42074e-014 8.74653e-015
lhumerus 76.7473 -0.329296 40.6685
lradius 21.3829
lwrist -33.4281
lhand -25.9831 1.39285
lfingers 7.12502
lthumb 0.562064 31.3719
rfemur -12.3887 -7.13236 15.5469
rtibia 28.5041
rfoot -12.9029 11.7301
rtoes -18.1507
lfemur -10.1561 3.93864 -13.8544
ltibia 29.7282
lfoot -13.5439 -5.96828
ltoes -9.13565
